<?xml version="1.0" standalone="no"?>
<!DOCTYPE svg PUBLIC "-//W3C//DTD SVG 20010904//EN"
 "http://www.w3.org/TR/2001/REC-SVG-20010904/DTD/svg10.dtd">
<svg version="1.0" xmlns="http://www.w3.org/2000/svg"
 width="100.000000pt" height="100.000000pt" viewBox="0 0 100.000000 100.000000"
 preserveAspectRatio="xMidYMid meet">

<g transform="translate(0.000000,100.000000) scale(0.100000,-0.100000)"
fill="#000000" stroke="none">
<path d="M467 952 c-23 -25 -21 -54 4 -86 31 -40 22 -69 -23 -77 -21 -3 -60
-20 -87 -37 -47 -29 -50 -29 -65 -13 -9 10 -16 32 -16 49 0 23 -7 36 -26 49
-24 15 -29 15 -53 2 -50 -28 -30 -99 29 -99 15 0 35 -8 44 -19 16 -18 16 -21
-6 -62 -13 -24 -28 -64 -33 -89 -9 -38 -14 -45 -37 -48 -18 -2 -33 4 -45 17
-22 26 -55 27 -76 3 -20 -22 -22 -63 -5 -80 19 -19 63 -14 83 8 35 38 69 21
82 -41 3 -19 17 -54 30 -77 23 -42 24 -45 7 -63 -9 -10 -29 -19 -44 -19 -52 0
-79 -60 -42 -93 40 -36 92 -7 92 51 0 44 31 60 68 34 15 -11 45 -25 67 -32 80
-25 91 -43 56 -91 -24 -32 -27 -58 -8 -83 19 -26 68 -18 86 15 16 28 16 27
-34 95 -15 21 7 48 46 55 32 5 72 24 111 51 22 16 48 -6 48 -41 0 -60 58 -92
93 -53 35 38 10 87 -47 94 -45 5 -54 29 -29 80 11 24 26 63 34 88 16 52 47 65
76 31 19 -23 62 -28 81 -9 7 7 12 25 12 41 0 54 -50 76 -85 37 -10 -11 -30
-20 -45 -20 -25 0 -29 6 -44 58 -9 32 -23 67 -31 78 -31 41 -12 84 36 84 34 0
59 24 59 54 0 26 -29 56 -53 56 -26 0 -57 -37 -57 -69 0 -16 -7 -34 -16 -42
-13 -11 -25 -8 -74 19 -31 18 -69 32 -84 32 -39 0 -46 41 -12 81 32 38 32 50
3 77 -28 27 -49 28 -70 4z m53 -28 c11 -12 10 -18 -4 -32 -16 -16 -18 -16 -31
2 -11 14 -12 23 -4 33 15 17 24 16 39 -3z m-275 -129 c0 -13 -8 -21 -22 -23
-17 -3 -23 2 -23 16 0 10 3 22 7 26 13 13 38 1 38 -19z m552 14 c16 -16 5 -39
-17 -39 -23 0 -34 16 -26 35 6 18 28 19 43 4z m-207 -60 c53 -24 92 -59 128
-114 23 -35 26 -51 27 -126 0 -56 -5 -96 -15 -115 -49 -97 -133 -154 -227
-154 -87 0 -171 53 -228 145 -15 23 -19 49 -19 115 0 75 3 92 26 130 33 57 65
86 125 116 60 29 123 30 183 3z m-460 -235 c11 -12 11 -18 -2 -30 -14 -14 -17
-14 -32 1 -13 13 -14 20 -5 31 15 18 24 18 39 -2z m787 0 c7 -19 -20 -49 -36
-40 -12 8 -15 39 -4 49 12 12 33 7 40 -9z m-669 -297 c4 -20 -25 -34 -40 -19
-15 15 -1 44 19 40 10 -2 19 -11 21 -21z m551 9 c9 -10 8 -16 -4 -26 -17 -14
-45 -7 -45 13 0 29 30 37 49 13z m-272 -122 c3 -8 -1 -22 -9 -30 -13 -14 -17
-14 -32 1 -13 13 -14 20 -5 31 15 19 38 18 46 -2z"/>
<path d="M426 720 c-61 -24 -89 -50 -121 -114 -75 -151 36 -336 203 -336 40 0
110 31 146 66 123 118 66 348 -98 392 -60 16 -71 15 -130 -8z m164 -33 c77
-56 103 -105 103 -186 -2 -173 -185 -263 -313 -154 -50 43 -70 89 -70 160 0
87 59 174 128 189 15 3 32 7 37 9 17 7 99 -6 115 -18z"/>
<path d="M443 611 c-25 -12 -30 -20 -23 -31 13 -20 13 -127 0 -151 -9 -15 -7
-20 7 -25 10 -3 25 -9 34 -14 10 -5 21 -4 28 3 8 8 14 8 23 -1 15 -15 61 11
79 45 10 19 10 28 -1 48 -10 20 -11 28 -2 37 21 21 13 46 -25 77 -28 23 -40
28 -50 19 -8 -7 -17 -7 -25 -1 -9 6 -24 4 -45 -6z m116 -45 c23 -27 2 -46 -50
-46 -45 0 -49 2 -49 23 0 13 3 27 7 30 12 12 80 7 92 -7z m1 -91 c20 -24 -5
-45 -52 -45 -25 0 -41 5 -44 15 -12 29 4 45 44 45 23 0 45 -6 52 -15z"/>
</g>
</svg>
